<svg xmlns="http://www.w3.org/2000/svg" viewBox="0 0 96 96" role="img" aria-labelledby="title">
  <title id="title">Mapa de estrategia de campo</title>
  <defs>
    <linearGradient id="fairway" x1="25" y1="12" x2="67" y2="86" gradientUnits="userSpaceOnUse">
      <stop stop-color="#79ad58"/>
      <stop offset="1" stop-color="#2d7148"/>
    </linearGradient>
    <filter id="shadow" x="-20%" y="-20%" width="140%" height="150%">
      <feDropShadow dx="0" dy="3" stdDeviation="3" flood-color="#173f2a" flood-opacity=".2"/>
    </filter>
  </defs>
  <path d="M50 8c19 2 29 15 23 29-4 9-16 12-13 23 3 12-4 27-20 28-17 1-27-15-20-28 5-10 17-13 14-24C30 22 34 12 50 8Z" fill="url(#fairway)" filter="url(#shadow)"/>
  <ellipse cx="49" cy="20" rx="13" ry="8" fill="#1d5a3a"/>
  <path d="M49 75C38 65 58 57 49 46c-6-7-3-14 0-22" fill="none" stroke="#f8f5df" stroke-width="3.5" stroke-linecap="round" stroke-dasharray="2 7"/>
  <path d="M30 45c4-5 9-6 14-2-1 6-6 9-13 8-2-2-2-4-1-6ZM58 51c5-4 10-3 13 1-1 6-5 9-11 7-3-2-4-5-2-8Z" fill="#f1dca3"/>
  <circle cx="49" cy="76" r="5" fill="#fff" stroke="#173f2a" stroke-width="2"/>
  <path d="M49 20V10" stroke="#fff" stroke-width="2" stroke-linecap="round"/>
  <path d="M50 10v6l8-3-8-3Z" fill="#cf5447"/>
</svg>
